<svg width="26" height="26" viewBox="0 0 26 26" fill="none" xmlns="http://www.w3.org/2000/svg">
<path d="M26 1.313L24.687 0L0 24.687L1.313 26L3.17014 24.1429H22.2857C22.778 24.1421 23.25 23.9462 23.5981 23.5981C23.9462 23.25 24.1421 22.778 24.1429 22.2857V3.17014L26 1.313ZM22.2857 22.2857H5.02729L12.2636 15.0494L14.4727 17.2584C14.821 17.6066 15.2933 17.8022 15.7857 17.8022C16.2782 17.8022 16.7504 17.6066 17.0987 17.2584L18.5714 15.7857L22.2857 19.4972V22.2857ZM22.2857 16.8703L19.8844 14.469C19.5362 14.1208 19.0639 13.9253 18.5714 13.9253C18.079 13.9253 17.6067 14.1208 17.2584 14.469L15.7857 15.9417L13.5785 13.7345L22.2857 5.02729V16.8703ZM3.71429 18.5714V15.7857L8.35714 11.1456L9.63207 12.4215L10.9469 11.1066L9.67014 9.82986C9.32188 9.4817 8.84959 9.28611 8.35714 9.28611C7.86469 9.28611 7.39241 9.4817 7.04414 9.82986L3.71429 13.1597V3.71429H18.5714V1.85714H3.71429C3.22174 1.85714 2.74937 2.05281 2.40109 2.40109C2.05281 2.74937 1.85714 3.22174 1.85714 3.71429V18.5714H3.71429Z" fill="#DDDDDD"/>
</svg>
